<svg id="visual" viewBox="0 0 900 600" width="900" height="600" xmlns="http://www.w3.org/2000/svg" xmlns:xlink="http://www.w3.org/1999/xlink" version="1.1"><rect x="0" y="0" width="900" height="600" fill="#658190"></rect><path d="M0 458L30 442.5C60 427 120 396 180 393.7C240 391.3 300 417.7 360 434.5C420 451.3 480 458.7 540 432.3C600 406 660 346 720 312.2C780 278.3 840 270.7 870 266.8L900 263L900 0L870 0C840 0 780 0 720 0C660 0 600 0 540 0C480 0 420 0 360 0C300 0 240 0 180 0C120 0 60 0 30 0L0 0Z" fill="#0066FF" stroke-linecap="round" stroke-linejoin="miter"></path></svg>