<?xml version="1.0" standalone="no"?><svg xmlns="http://www.w3.org/2000/svg" viewBox="0 0 1440 320"><path fill="#58af0838" fill-opacity="1" d="M0,224L34.3,213.3C68.6,203,137,181,206,181.3C274.3,181,343,203,411,202.7C480,203,549,181,617,176C685.7,171,754,181,823,181.3C891.4,181,960,171,1029,149.3C1097.1,128,1166,96,1234,90.7C1302.9,85,1371,107,1406,117.3L1440,128L1440,320L1405.7,320C1371.4,320,1303,320,1234,320C1165.7,320,1097,320,1029,320C960,320,891,320,823,320C754.3,320,686,320,617,320C548.6,320,480,320,411,320C342.9,320,274,320,206,320C137.1,320,69,320,34,320L0,320Z"></path></svg>